<svg width="60" height="33" viewBox="0 0 60 33" fill="none" xmlns="http://www.w3.org/2000/svg">
<path d="M28.7002 4.8165C29.3502 3.94984 30.6502 3.94984 31.3002 4.8165L35.8502 10.8832C37.8002 13.4832 41.7002 13.4832 43.6502 10.8832L47.9563 5.1417C48.6412 4.22854 50.0294 4.2875 50.6343 5.25545L56.2472 14.2361C56.7229 14.9971 57.7254 15.2285 58.4865 14.7528C59.2475 14.2772 59.4789 13.2746 59.0032 12.5136L53.3903 3.53295C51.5754 0.629121 47.4109 0.452229 45.3563 3.19169L41.0502 8.93317C40.4002 9.79984 39.1002 9.79984 38.4502 8.93317L33.9002 2.8665C31.9502 0.266503 28.0502 0.266504 26.1002 2.8665L21.5502 8.93317C20.9002 9.79984 19.6002 9.79984 18.9502 8.93317L14.6441 3.19169C12.5895 0.452228 8.42501 0.629121 6.61012 3.53295L0.99722 12.5136C0.521566 13.2746 0.752922 14.2772 1.51397 14.7528C2.27502 15.2285 3.27756 14.9971 3.75322 14.2361L9.36611 5.25545C9.97108 4.2875 11.3592 4.22854 12.0441 5.14169L16.3502 10.8832C18.3002 13.4832 22.2002 13.4832 24.1502 10.8832L28.7002 4.8165Z" fill="#050505"/>
<path d="M28.7002 22.6915C29.3502 21.8248 30.6502 21.8248 31.3002 22.6915L35.8502 28.7582C37.8002 31.3582 41.7002 31.3582 43.6502 28.7582L47.9563 23.0167C48.6412 22.1035 50.0294 22.1625 50.6343 23.1304L56.2472 32.1111C56.7229 32.8721 57.7254 33.1035 58.4865 32.6278C59.2475 32.1522 59.4789 31.1496 59.0032 30.3886L53.3903 21.4079C51.5754 18.5041 47.4109 18.3272 45.3563 21.0667L41.0502 26.8082C40.4002 27.6748 39.1002 27.6748 38.4502 26.8082L33.9002 20.7415C31.9502 18.1415 28.0502 18.1415 26.1002 20.7415L21.5502 26.8082C20.9002 27.6748 19.6002 27.6748 18.9502 26.8082L14.6441 21.0667C12.5895 18.3272 8.42501 18.5041 6.61012 21.4079L0.99722 30.3886C0.521566 31.1496 0.752922 32.1522 1.51397 32.6278C2.27502 33.1035 3.27756 32.8721 3.75322 32.1111L9.36611 23.1304C9.97108 22.1625 11.3592 22.1035 12.0441 23.0167L16.3502 28.7582C18.3002 31.3582 22.2002 31.3582 24.1502 28.7582L28.7002 22.6915Z" fill="#050505"/>
</svg>
