<svg width="61" height="62" viewBox="0 0 61 62" fill="none" xmlns="http://www.w3.org/2000/svg">
<path d="M35.6436 7.31594C39.2965 3.01326 42.9246 1.19768 45.8028 0.505114C47.2296 0.161779 48.4396 0.102236 49.3344 0.131558C49.7817 0.146213 50.1462 0.182948 50.4121 0.215718C50.5171 0.228657 50.6103 0.241483 50.6755 0.25045L50.7157 0.255956L50.7296 0.257828C52.8732 0.2825 55.3402 1.26452 57.2727 2.85789C59.2545 4.4919 60.875 6.94195 60.875 9.98897C60.875 12.5955 60.4166 14.9801 59.0987 16.9671C57.7651 18.9777 55.6884 20.3771 52.8546 21.2672C51.9984 21.5362 51.0863 21.0601 50.8173 20.2039C50.5484 19.3477 51.0245 18.4355 51.8807 18.1666C54.2086 17.4354 55.5731 16.4028 56.3903 15.1707C57.2231 13.9151 57.625 12.2464 57.625 9.98897C57.625 8.17202 56.6646 6.56877 55.2052 5.36545C53.7214 4.14199 51.9256 3.50735 50.6471 3.50735C50.4941 3.50735 50.3237 3.48291 50.2843 3.47725L50.2775 3.47629L50.2242 3.46898C50.1601 3.46018 50.0946 3.45118 50.0146 3.44132C49.818 3.41709 49.5538 3.39049 49.228 3.37981C48.5766 3.35847 47.663 3.40026 46.5631 3.66492C44.3879 4.18834 41.3506 5.61541 38.1211 9.41933C35.8828 12.0558 34.2461 15.6124 33.1699 19.1017C32.0937 22.5911 31.625 25.8589 31.625 27.8235V60.25C31.625 61.1475 30.8975 61.875 30 61.875C29.1025 61.875 28.375 61.1475 28.375 60.25V27.75C28.375 25.7689 27.9302 22.4845 26.9123 18.9819C25.8936 15.4767 24.3451 11.9076 22.2311 9.26512C19.1826 5.45449 16.3299 4.04238 14.314 3.5276C13.293 3.26687 12.4471 3.22617 11.8465 3.24706C11.5458 3.25752 11.3021 3.28355 11.1203 3.30732C11.0461 3.31702 10.9858 3.32582 10.9255 3.33461L10.8743 3.34205L10.8699 3.34272C10.8381 3.34763 10.6609 3.375 10.5 3.375C9.34662 3.375 7.68211 3.98818 6.28882 5.20731C4.92627 6.39954 4 8.01393 4 9.875C4 12.1518 4.38289 13.8403 5.17487 15.1075C5.94618 16.3416 7.22194 17.3611 9.38887 18.0834C10.2403 18.3672 10.7004 19.2875 10.4166 20.1389C10.1328 20.9903 9.21254 21.4504 8.36113 21.1666C5.65306 20.2639 3.67882 18.8459 2.41888 16.83C1.17961 14.8472 0.75 12.4732 0.75 9.875C0.75 6.86107 2.26123 4.41295 4.14868 2.76143C5.97837 1.16045 8.3337 0.154576 10.4083 0.125637L15.1182 0.378646C17.8749 1.08261 21.3174 2.9205 24.7689 7.23486C27.2489 10.3348 28.9503 14.349 30.0332 18.0749C30.0417 18.1041 30.0501 18.1333 30.0585 18.1625C30.0604 18.1563 30.0624 18.1501 30.0643 18.1439C31.2132 14.4185 33.0177 10.4089 35.6436 7.31594Z" fill="#050505"/>
</svg>
