<svg width="63" height="63" viewBox="0 0 63 63" fill="none" xmlns="http://www.w3.org/2000/svg">
<path fill-rule="evenodd" clip-rule="evenodd" d="M31.6251 62.25C44.0204 62.25 54.7097 54.9457 59.6234 44.4065C61.4227 42.1761 62.5 39.3389 62.5 36.25C62.5 29.0703 56.6797 23.25 49.5 23.25C42.3203 23.25 36.5 29.0703 36.5 36.25C36.5 43.4297 42.3203 49.25 49.5 49.25C50.7523 49.25 51.9633 49.0729 53.1092 48.7424C48.0447 54.9996 40.3021 59 31.6251 59C25.1039 59 19.1104 56.7404 14.3849 52.9614C13.7014 52.1887 12.8497 51.2922 12.4796 51.1554C12.1682 51.0402 11.8426 50.977 11.5572 50.977C10.6597 50.977 9.93217 51.7045 9.93217 52.602C9.93217 53.1265 10.1807 53.5929 10.5664 53.8901L10.5123 53.9032C16.0338 59.0799 23.4593 62.25 31.6251 62.25ZM56.8748 42.6279C58.3547 40.9182 59.25 38.6887 59.25 36.25C59.25 30.8652 54.8848 26.5 49.5 26.5C44.1152 26.5 39.75 30.8652 39.75 36.25C39.75 41.6348 44.1152 46 49.5 46C52.4315 46 55.0609 44.7062 56.8482 42.6585L56.8603 42.6314L56.8748 42.6279Z" fill="#050505"/>
<path fill-rule="evenodd" clip-rule="evenodd" d="M31.6251 0.5C43.7318 0.5 54.2109 7.46811 59.2708 17.6125C59.2708 17.3144 59.3163 17.8113 59.2708 17.6125C59.2708 18.51 59.4505 20 57.625 20C56.7275 20 56 18.375 56 18.375C56 18.3673 55.9981 18.3596 55.9945 18.3528C51.3406 9.66181 42.1733 3.75 31.6251 3.75C20.9993 3.75 11.7747 9.74927 7.15366 18.5455C9.0874 17.4046 11.3423 16.75 13.75 16.75C20.9297 16.75 26.75 22.5703 26.75 29.75C26.75 36.9297 20.9297 42.75 13.75 42.75C7.26972 42.75 1.89688 38.0084 0.911577 31.8054L0.753637 31.8438C0.751315 31.6878 0.75015 31.5316 0.75015 31.375C0.75015 31.0458 0.755302 30.7178 0.765531 30.3911C0.755217 30.1787 0.75 29.965 0.75 29.75C0.75 28.7327 0.86685 27.7427 1.08786 26.7927C3.30155 11.914 16.1304 0.5 31.6251 0.5ZM4.01857 30.3567C4.33181 35.4589 8.56896 39.5 13.75 39.5C19.1348 39.5 23.5 35.1348 23.5 29.75C23.5 24.3652 19.1348 20 13.75 20C9.17169 20 5.33043 23.1556 4.28251 27.4104C4.14356 28.3772 4.05468 29.3602 4.01857 30.3567Z" fill="#050505"/>
</svg>
