<svg width="63" height="59" viewBox="0 0 63 59" fill="none" xmlns="http://www.w3.org/2000/svg">
<path d="M2.375 2L4.87564 2.83355C6.43709 3.35403 7.85591 4.23091 9.01974 5.39474C11.008 7.38301 12.125 10.0797 12.125 12.8915V13.375M12.125 36.125V13.375M12.125 13.375L17.3844 6.8008C18.2065 5.77309 19.1824 4.87842 20.2774 4.14837C22.3787 2.74752 24.8476 2 27.373 2H28.9868C30.7218 2 32.4329 2.40394 33.9847 3.17983L34.8226 3.5988C36.9371 4.65605 38.545 6.50997 39.2926 8.75273C39.5955 9.66163 39.75 10.6134 39.75 11.5715V31.7991C39.75 32.5151 39.8092 33.23 39.9269 33.9363L40.7158 38.6699C40.8974 39.7595 41.2213 40.8136 41.6746 41.8069M41.6746 41.8069L44.0251 38.5749C44.4244 38.0258 44.8662 37.5088 45.3462 37.0288L47.0727 35.3023C48.6269 33.7481 50.7348 32.875 52.9328 32.875H53.0247C55.8787 32.875 58.5235 34.3724 59.9918 36.8197C61.5357 39.3928 61.5357 42.6072 59.9918 45.1803C58.5235 47.6276 55.8787 49.125 53.0247 49.125H51.9943C49.3568 49.125 46.8272 48.0772 44.9622 46.2122L44.2103 45.4603C43.1474 44.3974 42.2913 43.1584 41.6746 41.8069ZM41.6746 41.8069L32.7109 54.1319C31.9974 55.1129 31.0587 55.9082 29.9737 56.4507C28.9223 56.9763 27.7631 57.25 26.5876 57.25H20.25" stroke="#050505" stroke-width="3.5" stroke-linecap="round"/>
</svg>
