<svg width="58" height="59" viewBox="0 0 58 59" fill="none" xmlns="http://www.w3.org/2000/svg">
<path fill-rule="evenodd" clip-rule="evenodd" d="M28.5935 0.75C24.9012 0.75 21.3602 2.21675 18.7493 4.82758C16.6193 6.95756 15.2377 9.72093 14.8117 12.7029L14.3678 15.8098C13.9409 18.7984 14.0979 21.8415 14.8301 24.7703L16.339 30.8061C15.0358 30.286 13.6138 30 12.125 30C5.84276 30 0.75 35.0928 0.75 41.375C0.75 47.6572 5.84276 52.75 12.125 52.75C18.4072 52.75 23.5 47.6572 23.5 41.375C23.5 38.2613 22.249 35.4398 20.2221 33.3858C20.1854 32.9416 20.1127 32.5008 20.0044 32.0676L17.983 23.982C17.3528 21.4611 17.2177 18.8418 17.5851 16.2694L18.029 13.1625C18.3555 10.8767 19.4147 8.75842 21.0474 7.12568C23.0488 5.12434 25.7632 4 28.5935 4H30.8558C32.2307 4 33.5929 4.26235 34.8695 4.77296L35.318 4.95238C38.2583 6.12851 40.455 8.64507 41.2231 11.7173C42.3403 16.1863 42.16 20.8813 40.7033 25.2514L38.1887 32.7953L35.513 43.4978C35.0665 45.2839 35.0222 47.1468 35.3832 48.9521L35.5443 49.7576C36.2679 53.3754 38.7697 56.3831 42.1953 57.7533C44.7982 58.7944 47.7018 58.7944 50.3047 57.7533L50.616 57.6288C53.8266 56.3445 56.3089 53.7119 57.4024 50.4314L57.5416 50.0139C57.8254 49.1625 57.3653 48.2422 56.5139 47.9584C55.6625 47.6746 54.7422 48.1347 54.4584 48.9861L54.3192 49.4036C53.528 51.7772 51.732 53.682 49.4089 54.6112L49.0977 54.7357C47.2696 55.467 45.2304 55.467 43.4023 54.7357C40.9965 53.7734 39.2394 51.6611 38.7312 49.1202L38.5701 48.3147C38.3034 46.9813 38.3362 45.6053 38.666 44.2861L41.3113 33.7047L43.7865 26.2791C45.4387 21.3226 45.6432 15.9977 44.376 10.9291C43.3549 6.84439 40.4343 3.49854 36.525 1.93483L36.0765 1.75541C34.416 1.09124 32.6441 0.75 30.8558 0.75H28.5935ZM20.6562 41.375C20.6562 46.0867 16.8367 49.9062 12.125 49.9062C7.41332 49.9062 3.59375 46.0867 3.59375 41.375C3.59375 36.6633 7.41332 32.8437 12.125 32.8437C16.8367 32.8437 20.6562 36.6633 20.6562 41.375Z" fill="#050505"/>
</svg>
