<svg width="56" height="55" viewBox="0 0 56 55" fill="none" xmlns="http://www.w3.org/2000/svg">
<path d="M39.375 39.75C39.375 38.8526 40.1026 38.125 41 38.125H40.8984C44.9467 34.5519 47.5 29.3241 47.5 23.5C47.5 12.7305 38.7695 4 28 4C17.2305 4 8.5 12.7305 8.5 23.5C8.5 29.3241 11.0533 34.5519 15.1016 38.125H15C15.8974 38.125 16.625 38.8526 16.625 39.75C16.625 40.6474 15.8974 41.375 15 41.375H2C1.10255 41.375 0.375 40.6474 0.375 39.75C0.375 38.8526 1.10255 38.125 2 38.125H10.5732C7.251 34.1705 5.25 29.0689 5.25 23.5C5.25 10.9355 15.4355 0.75 28 0.75C40.5645 0.75 50.75 10.9355 50.75 23.5C50.75 29.0689 48.749 34.1705 45.4268 38.125H54C54.8974 38.125 55.625 38.8526 55.625 39.75C55.625 40.6474 54.8974 41.375 54 41.375H41C40.1026 41.375 39.375 40.6474 39.375 39.75Z" fill="#050505"/>
<path d="M2 51.125C1.10255 51.125 0.375 51.8526 0.375 52.75C0.375 53.6474 1.10255 54.375 2 54.375H54C54.8974 54.375 55.625 53.6474 55.625 52.75C55.625 51.8526 54.8974 51.125 54 51.125H2Z" fill="#050505"/>
</svg>
