<svg width="102" height="29" viewBox="0 0 102 29" fill="none" xmlns="http://www.w3.org/2000/svg">
<path d="M1.52131 23V20.8352L7.9304 12.9006V12.8068H1.7429V9.90909H12.3026V12.2699L6.28551 20.0085V20.1023H12.5241V23H1.52131ZM20.8402 23.2557C19.5163 23.2557 18.3714 22.9744 17.4055 22.4119C16.4453 21.8437 15.7038 21.054 15.1811 20.0426C14.6584 19.0256 14.397 17.8466 14.397 16.5057C14.397 15.1534 14.6584 13.9716 15.1811 12.9602C15.7038 11.9432 16.4453 11.1534 17.4055 10.5909C18.3714 10.0227 19.5163 9.73864 20.8402 9.73864C22.1641 9.73864 23.3061 10.0227 24.2663 10.5909C25.2322 11.1534 25.9766 11.9432 26.4993 12.9602C27.022 13.9716 27.2834 15.1534 27.2834 16.5057C27.2834 17.8466 27.022 19.0256 26.4993 20.0426C25.9766 21.054 25.2322 21.8437 24.2663 22.4119C23.3061 22.9744 22.1641 23.2557 20.8402 23.2557ZM20.8572 20.4432C21.4595 20.4432 21.9624 20.2727 22.3658 19.9318C22.7692 19.5852 23.0732 19.1136 23.2777 18.517C23.4879 17.9205 23.593 17.2415 23.593 16.4801C23.593 15.7188 23.4879 15.0398 23.2777 14.4432C23.0732 13.8466 22.7692 13.375 22.3658 13.0284C21.9624 12.6818 21.4595 12.5085 20.8572 12.5085C20.2493 12.5085 19.7379 12.6818 19.3232 13.0284C18.9141 13.375 18.6044 13.8466 18.3942 14.4432C18.1896 15.0398 18.0874 15.7188 18.0874 16.4801C18.0874 17.2415 18.1896 17.9205 18.3942 18.517C18.6044 19.1136 18.9141 19.5852 19.3232 19.9318C19.7379 20.2727 20.2493 20.4432 20.8572 20.4432ZM34.468 23.2131C33.4737 23.2131 32.5732 22.9574 31.7663 22.446C30.9652 21.929 30.3288 21.1705 29.8572 20.1705C29.3913 19.1648 29.1584 17.9318 29.1584 16.4716C29.1584 14.9716 29.3999 13.7244 29.8828 12.7301C30.3658 11.7301 31.0078 10.983 31.8089 10.4886C32.6158 9.98864 33.4993 9.73864 34.4595 9.73864C35.1925 9.73864 35.8033 9.86364 36.2919 10.1136C36.7862 10.358 37.1839 10.6648 37.4851 11.0341C37.7919 11.3977 38.0249 11.7557 38.1839 12.108H38.2947V5.54545H41.9169V23H38.3374V20.9034H38.1839C38.0135 21.267 37.772 21.6278 37.4595 21.9858C37.1527 22.3381 36.7521 22.6307 36.2578 22.8636C35.7692 23.0966 35.1726 23.2131 34.468 23.2131ZM35.6186 20.3239C36.2038 20.3239 36.6982 20.1648 37.1016 19.8466C37.5107 19.5227 37.8232 19.071 38.0391 18.4915C38.2607 17.9119 38.3714 17.233 38.3714 16.4545C38.3714 15.6761 38.2635 15 38.0476 14.4261C37.8317 13.8523 37.5192 13.4091 37.1101 13.0966C36.701 12.7841 36.2038 12.6278 35.6186 12.6278C35.022 12.6278 34.5192 12.7898 34.1101 13.1136C33.701 13.4375 33.3913 13.8864 33.1811 14.4602C32.9709 15.0341 32.8658 15.6989 32.8658 16.4545C32.8658 17.2159 32.9709 17.8892 33.1811 18.4744C33.397 19.054 33.7067 19.5085 34.1101 19.8381C34.5192 20.1619 35.022 20.3239 35.6186 20.3239ZM44.902 23V9.90909H48.5327V23H44.902ZM46.7259 8.22159C46.1861 8.22159 45.723 8.04261 45.3366 7.68466C44.956 7.32102 44.7656 6.88636 44.7656 6.38068C44.7656 5.88068 44.956 5.4517 45.3366 5.09375C45.723 4.73011 46.1861 4.54829 46.7259 4.54829C47.2656 4.54829 47.7259 4.73011 48.1065 5.09375C48.4929 5.4517 48.6861 5.88068 48.6861 6.38068C48.6861 6.88636 48.4929 7.32102 48.1065 7.68466C47.7259 8.04261 47.2656 8.22159 46.7259 8.22159ZM55.174 23.2472C54.3388 23.2472 53.5945 23.1023 52.9411 22.8125C52.2876 22.517 51.7706 22.0824 51.3899 21.5085C51.0149 20.929 50.8274 20.2074 50.8274 19.3438C50.8274 18.6165 50.9609 18.0057 51.228 17.5114C51.495 17.017 51.8587 16.6193 52.3189 16.3182C52.7791 16.017 53.3018 15.7898 53.8871 15.6364C54.478 15.483 55.0973 15.375 55.745 15.3125C56.5064 15.233 57.12 15.1591 57.5859 15.0909C58.0518 15.017 58.3899 14.9091 58.6001 14.767C58.8104 14.625 58.9155 14.4148 58.9155 14.1364V14.0852C58.9155 13.5455 58.745 13.1278 58.4041 12.8324C58.0689 12.5369 57.5916 12.3892 56.9723 12.3892C56.3189 12.3892 55.799 12.5341 55.4126 12.8239C55.0263 13.108 54.7706 13.4659 54.6456 13.8977L51.2876 13.625C51.4581 12.8295 51.7933 12.142 52.2933 11.5625C52.7933 10.9773 53.4382 10.5284 54.228 10.2159C55.0234 9.89773 55.9439 9.73864 56.9893 9.73864C57.7166 9.73864 58.4126 9.82386 59.0774 9.99432C59.7479 10.1648 60.3416 10.429 60.8587 10.7869C61.3814 11.1449 61.7933 11.6051 62.0945 12.1676C62.3956 12.7244 62.5462 13.392 62.5462 14.1705V23H59.103V21.1847H59.0007C58.7905 21.5938 58.5092 21.9545 58.157 22.267C57.8047 22.5739 57.3814 22.8153 56.8871 22.9915C56.3928 23.1619 55.8217 23.2472 55.174 23.2472ZM56.2138 20.7415C56.7479 20.7415 57.2195 20.6364 57.6286 20.4261C58.0376 20.2102 58.3587 19.9205 58.5916 19.5568C58.8246 19.1932 58.9411 18.7812 58.9411 18.321V16.9318C58.8274 17.0057 58.6712 17.0739 58.4723 17.1364C58.2791 17.1932 58.0604 17.2472 57.8161 17.2983C57.5717 17.3437 57.3274 17.3864 57.0831 17.4261C56.8388 17.4602 56.6172 17.4915 56.4183 17.5199C55.9922 17.5824 55.62 17.6818 55.3018 17.8182C54.9837 17.9545 54.7365 18.1392 54.5604 18.3722C54.3842 18.5994 54.2962 18.8835 54.2962 19.2244C54.2962 19.7188 54.4751 20.0966 54.8331 20.358C55.1967 20.6136 55.657 20.7415 56.2138 20.7415ZM71.2777 23.2557C69.9368 23.2557 68.7834 22.9716 67.8175 22.4034C66.8572 21.8295 66.1186 21.0341 65.6016 20.017C65.0902 19 64.8345 17.8295 64.8345 16.5057C64.8345 15.1648 65.093 13.9886 65.6101 12.9773C66.1328 11.9602 66.8743 11.1676 67.8345 10.5994C68.7947 10.0256 69.9368 9.73864 71.2607 9.73864C72.4027 9.73864 73.4027 9.94602 74.2607 10.3608C75.1186 10.7756 75.7976 11.358 76.2976 12.108C76.7976 12.858 77.0732 13.7386 77.1243 14.75H73.6982C73.6016 14.0966 73.3459 13.571 72.9311 13.1733C72.522 12.7699 71.9851 12.5682 71.3203 12.5682C70.7578 12.5682 70.2663 12.7216 69.8459 13.0284C69.4311 13.3295 69.1072 13.7699 68.8743 14.3494C68.6413 14.929 68.5249 15.6307 68.5249 16.4545C68.5249 17.2898 68.6385 18 68.8658 18.5852C69.0987 19.1705 69.4254 19.6165 69.8459 19.9233C70.2663 20.2301 70.7578 20.3835 71.3203 20.3835C71.7351 20.3835 72.1072 20.2983 72.4368 20.1278C72.772 19.9574 73.0476 19.7102 73.2635 19.3864C73.4851 19.0568 73.63 18.6619 73.6982 18.2017H77.1243C77.0675 19.2017 76.7947 20.0824 76.3061 20.8438C75.8232 21.5994 75.1555 22.1903 74.3033 22.6165C73.451 23.0426 72.4425 23.2557 71.2777 23.2557Z" fill="#050505"/>
<path d="M83.2861 16.6629L88.5162 16.7125C88.5788 16.7137 88.6401 16.7308 88.6943 16.7621C88.7485 16.7934 88.7939 16.8379 88.8263 16.8915L91.4843 21.3961C91.5251 21.4643 91.5871 21.5173 91.6607 21.5471C91.7344 21.5769 91.8157 21.5819 91.8925 21.5613C91.9692 21.5407 92.0372 21.4957 92.0861 21.4331C92.135 21.3704 92.1621 21.2936 92.1634 21.2141L92.213 15.984C92.2142 15.9214 92.2313 15.8602 92.2626 15.806C92.2939 15.7517 92.3384 15.7063 92.392 15.674L96.8966 13.016C96.9648 12.9751 97.0178 12.9132 97.0476 12.8395C97.0774 12.7659 97.0824 12.6845 97.0618 12.6078C97.0412 12.531 96.9962 12.4631 96.9336 12.4142C96.8709 12.3653 96.7941 12.3381 96.7146 12.3368L91.4845 12.2872C91.4219 12.286 91.3607 12.269 91.3065 12.2377C91.2522 12.2064 91.2069 12.1619 91.1745 12.1082L88.5165 7.60364C88.4757 7.53549 88.4137 7.4825 88.3401 7.4527C88.2664 7.4229 88.185 7.4179 88.1083 7.43847C88.0315 7.45903 87.9636 7.50404 87.9147 7.56668C87.8658 7.62932 87.8386 7.70617 87.8373 7.78562L87.7877 13.0157C87.7865 13.0783 87.7695 13.1396 87.7382 13.1938C87.7069 13.248 87.6624 13.2934 87.6088 13.3257L83.1041 15.9838C83.036 16.0246 82.983 16.0866 82.9532 16.1602C82.9234 16.2339 82.9184 16.3152 82.939 16.392C82.9595 16.4687 83.0045 16.5367 83.0672 16.5856C83.1298 16.6345 83.2067 16.6616 83.2861 16.6629Z" fill="#050505" stroke="#050505" stroke-width="0.125" stroke-linecap="round" stroke-linejoin="round"/>
</svg>
