<svg width="44" height="59" viewBox="0 0 44 59" fill="none" xmlns="http://www.w3.org/2000/svg">
<path d="M5.02328 0.296424C5.82599 -0.104934 6.80209 0.220431 7.20344 1.02315L10.6006 7.81751C13.4899 13.5961 15.1241 19.8286 15.4944 26.1249H28.5056C28.8759 19.8286 30.5101 13.5961 33.3994 7.81751L36.7966 1.02315C37.1979 0.220431 38.174 -0.104934 38.9767 0.296424C39.7794 0.697781 40.1048 1.67387 39.7034 2.47659L36.3063 9.27095C33.6454 14.5926 32.1279 20.3278 31.7616 26.1249H41.5C42.3975 26.1249 43.125 26.8524 43.125 27.7499C43.125 28.6473 42.3975 29.3749 41.5 29.3749H31.6769C31.7417 35.2808 32.9986 41.183 35.4558 46.7118L39.7349 56.3399C40.0994 57.16 39.7301 58.1203 38.91 58.4848C38.0899 58.8493 37.1296 58.48 36.7651 57.6599L32.4859 48.0317C29.8417 42.0823 28.4917 35.7302 28.4267 29.3749H15.5733C15.5083 35.7302 14.1583 42.0823 11.5141 48.0317L7.23494 57.6599C6.87045 58.48 5.91014 58.8493 5.09002 58.4848C4.26991 58.1203 3.90056 57.16 4.26506 56.3399L8.54422 46.7118C11.0014 41.183 12.2583 35.2808 12.3231 29.3749H2.5C1.60254 29.3749 0.875 28.6473 0.875 27.7499C0.875 26.8524 1.60254 26.1249 2.5 26.1249H12.2384C11.8721 20.3278 10.3546 14.5926 7.69374 9.27095L4.29656 2.47659C3.8952 1.67387 4.22056 0.697781 5.02328 0.296424Z" fill="#050505"/>
</svg>
