<svg width="56" height="56" viewBox="0 0 56 56" fill="none" xmlns="http://www.w3.org/2000/svg">
<path d="M55.2517 1.37798C55.1724 1.18632 55.0548 1.00675 54.899 0.850952L53.75 0.375H27.75C26.8525 0.375 26.125 1.10254 26.125 2C26.125 2.89746 26.8525 3.625 27.75 3.625H49.8269L19.625 33.8269L9.39905 23.601C8.76445 22.9664 7.73555 22.9664 7.10095 23.601C6.46635 24.2356 6.46635 25.2644 7.10095 25.899L17.3269 36.125L0.600951 52.851C-0.0336504 53.4856 -0.0336504 54.5144 0.600951 55.149C1.23555 55.7836 2.26445 55.7836 2.89905 55.149L19.625 38.4231L29.851 48.649C30.4856 49.2837 31.5144 49.2837 32.149 48.649C32.7836 48.0145 32.7836 46.9855 32.149 46.351L21.9231 36.125L52.125 5.9231V26.375C52.125 27.2725 52.8525 28 53.75 28C54.6475 28 55.375 27.2725 55.375 26.375V2C55.375 1.77967 55.3312 1.56958 55.2517 1.37798Z" fill="#050505"/>
</svg>
