<svg width="58" height="57" viewBox="0 0 58 57" fill="none" xmlns="http://www.w3.org/2000/svg">
<path d="M3.51897 0.98493C2.95833 0.28413 1.93573 0.170507 1.23493 0.731148C0.53413 1.29179 0.420508 2.31439 0.981148 3.01519L7.12506 10.6951V44.25H10.3751V10.7162L15.6472 4.42842C16.2979 3.65232 17.4923 3.65412 18.1407 4.43219L23.3751 10.7134V44.2501H26.6251V10.7134L31.8767 4.41142C32.5264 3.63182 33.7237 3.63182 34.3734 4.41142L39.2484 10.2614C39.4918 10.5535 39.6251 10.9216 39.6251 11.3017V36.1195L39.625 36.125V43.758C39.625 45.4592 40.1286 47.1224 41.0723 48.5379C42.6704 50.9351 45.3609 52.375 48.2421 52.375H51V56.4654C51 56.755 51.3501 56.9 51.5549 56.6952L57.2702 50.9799C57.3972 50.8529 57.3972 50.6472 57.2702 50.5202L51.5549 44.8049C51.3501 44.6001 51 44.7451 51 45.0347V49.125H48.2421C46.4476 49.125 44.7718 48.2282 43.7764 46.7351C43.1887 45.8535 42.875 44.8176 42.875 43.758L42.8751 11.3017C42.8751 10.1613 42.4752 9.05693 41.7451 8.18082L36.8701 2.33082C34.9211 -0.00797647 31.329 -0.00798285 29.38 2.33082L25.0001 7.58673L20.6374 2.35159C18.6923 0.0173903 15.109 0.0119704 13.1567 2.34028L8.77958 7.56069L3.51897 0.98493Z" fill="#050505"/>
</svg>
