<svg width="62" height="56" viewBox="0 0 62 56" fill="none" xmlns="http://www.w3.org/2000/svg">
<path fill-rule="evenodd" clip-rule="evenodd" d="M0.125 2C0.125 1.10254 0.852537 0.375 1.75 0.375H2.99484C7.81758 0.375 12.4967 2.01635 16.2626 5.02909C18.2339 6.60608 19.9082 8.52187 21.207 10.6865L22.6165 13.0357C23.7755 14.9674 24.7196 17.0201 25.432 19.1572L25.9157 20.6084C27.5272 20.1312 29.2337 19.875 31 19.875C32.7663 19.875 34.4728 20.1312 36.0843 20.6084L36.568 19.1572C37.2804 17.0201 38.2245 14.9674 39.3835 13.0357L40.793 10.6865C42.0918 8.52187 43.7661 6.60608 45.7374 5.02909C49.5033 2.01635 54.1824 0.375 59.0052 0.375H60.25C61.1475 0.375 61.875 1.10254 61.875 2C61.875 2.89746 61.1475 3.625 60.25 3.625H59.0052C54.9204 3.625 50.9573 5.01519 47.7676 7.56691C46.098 8.90259 44.6799 10.5252 43.5799 12.3586L42.1704 14.7078C41.1334 16.4361 40.2886 18.2728 39.6513 20.1849L39.1078 21.8153C44.9049 24.7708 48.875 30.7968 48.875 37.75C48.875 47.6221 40.8721 55.625 31 55.625C21.1279 55.625 13.125 47.6221 13.125 37.75C13.125 30.7968 17.0951 24.7708 22.8922 21.8153L22.3487 20.1849C21.7114 18.2728 20.8666 16.4361 19.8296 14.7078L18.4201 12.3586C17.3201 10.5252 15.902 8.90259 14.2324 7.56691C11.0427 5.01519 7.07959 3.625 2.99484 3.625H1.75C0.852537 3.625 0.125 2.89746 0.125 2ZM31 52.375C39.0772 52.375 45.625 45.8272 45.625 37.75C45.625 29.6728 39.0772 23.125 31 23.125C22.9228 23.125 16.375 29.6728 16.375 37.75C16.375 45.8272 22.9228 52.375 31 52.375Z" fill="#050505"/>
</svg>
