<svg width="60" height="54" viewBox="0 0 60 54" fill="none" xmlns="http://www.w3.org/2000/svg">
<path fill-rule="evenodd" clip-rule="evenodd" d="M0.73493 0.731148C1.43573 0.170507 2.45833 0.28413 3.01897 0.98493L8.27958 7.56069L12.6567 2.34028C14.609 0.0119703 18.1923 0.0173903 20.1374 2.35159L24.5001 7.58673L28.88 2.33082C30.829 -0.00798291 34.4211 -0.0079765 36.3701 2.33082L41.2451 8.18082C41.9752 9.05693 42.3751 10.1613 42.3751 11.3017V14.3598C43.4625 13.3175 44.4051 12.4817 45.2899 11.8496C46.9655 10.6528 48.5104 10.1251 50.5001 10.1251C51.7853 10.1251 53.2436 10.7316 54.5405 11.7338C55.8753 12.7652 57.1592 14.3023 58.0788 16.3713C59.93 20.5367 60.2466 26.6967 56.8838 35.1036C54.4298 41.2387 50.5222 45.3313 46.4245 47.9854C48.14 49.3328 50.5502 50.3845 53.9295 50.76C54.8215 50.8591 55.4642 51.6625 55.3651 52.5545C55.266 53.4465 54.4626 54.0892 53.5706 53.9901C48.9786 53.4799 45.6908 51.8439 43.417 49.6764C39.2695 51.6816 35.2412 52.3751 32.6251 52.3751C31.7276 52.3751 31.0001 51.6475 31.0001 50.7501C31.0001 49.8526 31.7276 49.1251 32.6251 49.1251C34.712 49.1251 37.9163 48.5933 41.2949 47.0827C41.2911 47.0767 41.2873 47.0707 41.2836 47.0647C39.2219 43.7841 38.84 40.1177 39.1251 37.6527V11.3017C39.1251 10.9216 38.9918 10.5535 38.7484 10.2614L33.8734 4.41142C33.2237 3.63182 32.0264 3.63182 31.3767 4.41142L26.1251 10.7134V44.2501C26.1251 45.1475 25.3975 45.8751 24.5001 45.8751C23.6026 45.8751 22.8751 45.1475 22.8751 44.2501V10.7134L17.6407 4.43219C16.9923 3.65412 15.7979 3.65232 15.1472 4.42842L9.87506 10.7162V44.25C9.87506 45.1475 9.14752 45.875 8.25006 45.875C7.3526 45.875 6.62506 45.1475 6.62506 44.25V10.6951L0.481148 3.01519C-0.0794925 2.31439 0.0341298 1.29179 0.73493 0.731148ZM42.3751 37.7706C42.3753 37.7555 42.3753 37.7404 42.3751 37.7254V18.9234C44.5786 16.7222 45.978 15.3521 47.1789 14.4943C48.3471 13.6598 49.2397 13.3751 50.5001 13.3751C50.8398 13.3751 51.6159 13.581 52.5533 14.3054C53.4529 15.0006 54.4034 16.104 55.1089 17.6913C56.5076 20.8384 57.0035 26.0535 53.8663 33.8965C51.6062 39.5468 47.9492 43.231 44.179 45.5578C44.1299 45.4839 44.082 45.4097 44.0353 45.3354C42.784 43.3443 42.3283 41.1374 42.2934 39.3751H42.3751V37.7706Z" fill="#050505"/>
</svg>
